<svg width="24" height="31" viewBox="0 0 24 31" fill="none" xmlns="http://www.w3.org/2000/svg">
    <path
        d="M10.8679 7.6303L14.8901 7.91156L12.4932 11.2806L14.3645 12.6184L16.8568 9.08762L18.8336 12.9309L20.8728 11.8665L18.9961 8.19868L22.9624 8.47603L23.1225 6.18562L19.1004 5.90437L21.4992 2.50742L19.6279 1.16963L17.1654 4.6744L15.2147 0.861031L13.1755 1.92538L15.0782 5.62311L11.0281 5.3399L10.8679 7.6303Z"
        fill="#f0f0f0"></path>
    <path
        d="M0.688711 19.7525L11.3915 21.2567L11.8436 18.0403L4.35714 16.9882L6.6329 0.795296L3.4165 0.343262L0.688711 19.7525Z"
        fill="#f0f0f0"></path>
    <path d="M23.1817 27.9938L2.3285 30.9245L1.87646 27.7081L22.7297 24.7774L23.1817 27.9938Z" fill="#f0f0f0">
    </path>
</svg>